<?xml version="1.0" encoding="UTF-8" standalone="no"?><svg xmlns="http://www.w3.org/2000/svg" xmlns:xlink="http://www.w3.org/1999/xlink" contentScriptType="application/ecmascript" contentStyleType="text/css" height="1232px" preserveAspectRatio="none" style="width:786px;height:1232px;" version="1.1" viewBox="0 0 786 1232" width="786px" zoomAndPan="magnify"><defs><filter height="300%" id="f15wmzjlk8twdi" width="300%" x="-1" y="-1"><feGaussianBlur result="blurOut" stdDeviation="2.0"/><feColorMatrix in="blurOut" result="blurOut2" type="matrix" values="0 0 0 0 0 0 0 0 0 0 0 0 0 0 0 0 0 0 .4 0"/><feOffset dx="4.0" dy="4.0" in="blurOut2" result="blurOut3"/><feBlend in="SourceGraphic" in2="blurOut3" mode="normal"/></filter></defs><g><rect fill="#FEFECE" filter="url(#f15wmzjlk8twdi)" height="60.8906" style="stroke: #A80036; stroke-width: 1.5;" width="136" x="589.5" y="7"/><text fill="#000000" font-family="sans-serif" font-size="12" lengthAdjust="spacingAndGlyphs" textLength="23" x="646" y="20.1387">app</text><line style="stroke: #A80036; stroke-width: 1.5;" x1="590.5" x2="724.5" y1="24.9688" y2="24.9688"/><text fill="#000000" font-family="sans-serif" font-size="10" lengthAdjust="spacingAndGlyphs" textLength="75" x="595.5" y="38.251">pagarMultas()</text><text fill="#000000" font-family="sans-serif" font-size="10" lengthAdjust="spacingAndGlyphs" textLength="114" x="595.5" y="49.8916">zonaMasTransitada()</text><text fill="#000000" font-family="sans-serif" font-size="10" lengthAdjust="spacingAndGlyphs" textLength="124" x="595.5" y="61.5322">usuariosComplicados()</text><!--MD5=[a9151f25fe54959f61f824f2e6762ae9]
class Zona--><rect codeLine="7" fill="#FEFECE" filter="url(#f15wmzjlk8twdi)" height="201.6563" id="Zona" style="stroke: #A80036; stroke-width: 1.5;" width="194" x="435.5" y="145"/><ellipse cx="512.75" cy="161" fill="#ADD1B2" rx="11" ry="11" style="stroke: #A80036; stroke-width: 1.0;"/><path d="M515.0938,156.6719 C514.1563,156.2344 513.5625,156.0938 512.6875,156.0938 C510.0625,156.0938 508.0625,158.1719 508.0625,160.8906 L508.0625,162.0156 C508.0625,164.5938 510.1719,166.4844 513.0625,166.4844 C514.2813,166.4844 515.4375,166.1875 516.1875,165.6406 C516.7656,165.2344 517.0938,164.7813 517.0938,164.3906 C517.0938,163.9375 516.7031,163.5469 516.2344,163.5469 C516.0156,163.5469 515.8125,163.625 515.625,163.8125 C515.1719,164.2969 515.1719,164.2969 514.9844,164.3906 C514.5625,164.6563 513.875,164.7813 513.1094,164.7813 C511.0625,164.7813 509.7656,163.6875 509.7656,161.9844 L509.7656,160.8906 C509.7656,159.1094 511.0156,157.7969 512.75,157.7969 C513.3281,157.7969 513.9375,157.9531 514.4063,158.2031 C514.8906,158.4844 515.0625,158.7031 515.1563,159.1094 C515.2188,159.5156 515.25,159.6406 515.3906,159.7656 C515.5313,159.9063 515.7656,160.0156 515.9844,160.0156 C516.25,160.0156 516.5156,159.875 516.6875,159.6563 C516.7969,159.5 516.8281,159.3125 516.8281,158.8906 L516.8281,157.4688 C516.8281,157.0313 516.8125,156.9063 516.7188,156.75 C516.5625,156.4844 516.2813,156.3438 515.9844,156.3438 C515.6875,156.3438 515.4844,156.4375 515.2656,156.75 L515.0938,156.6719 Z " fill="#000000"/><text fill="#000000" font-family="sans-serif" font-size="12" lengthAdjust="spacingAndGlyphs" textLength="31" x="533.25" y="165.1543">Zona</text><line style="stroke: #A80036; stroke-width: 1.5;" x1="436.5" x2="628.5" y1="177" y2="177"/><text fill="#000000" font-family="sans-serif" font-size="11" lengthAdjust="spacingAndGlyphs" textLength="108" x="441.5" y="191.2104">velocidadPermitida</text><line style="stroke: #A80036; stroke-width: 1.5;" x1="436.5" x2="628.5" y1="197.8047" y2="197.8047"/><text fill="#000000" font-family="sans-serif" font-size="11" lengthAdjust="spacingAndGlyphs" textLength="180" x="441.5" y="212.0151">cantidadDeUsuariosCirculando()</text><text fill="#000000" font-family="sans-serif" font-size="11" lengthAdjust="spacingAndGlyphs" textLength="58" x="441.5" y="224.8198">esDiaPar()</text><text fill="#000000" font-family="sans-serif" font-size="11" lengthAdjust="spacingAndGlyphs" textLength="179" x="441.5" y="237.6245">excesoDeVelocidad(unUsuario)</text><text fill="#000000" font-family="sans-serif" font-size="11" lengthAdjust="spacingAndGlyphs" textLength="171" x="441.5" y="250.4292">infraccionEcologica(unUsuario)</text><text fill="#000000" font-family="sans-serif" font-size="11" lengthAdjust="spacingAndGlyphs" textLength="182" x="441.5" y="263.2339">infraccionRegulatoria(unUsuario)</text><text fill="#000000" font-family="sans-serif" font-size="11" lengthAdjust="spacingAndGlyphs" textLength="129" x="441.5" y="276.0386">generarMulta(unCosto)</text><text fill="#000000" font-family="sans-serif" font-size="11" lengthAdjust="spacingAndGlyphs" textLength="175" x="441.5" y="288.8433">controlDeVelocidad(unUsuario)</text><text fill="#000000" font-family="sans-serif" font-size="11" lengthAdjust="spacingAndGlyphs" textLength="155" x="441.5" y="301.6479">controlEcologico(unUsuario)</text><text fill="#000000" font-family="sans-serif" font-size="11" lengthAdjust="spacingAndGlyphs" textLength="166" x="441.5" y="314.4526">controlRegulatorio(unUsuario)</text><text fill="#000000" font-family="sans-serif" font-size="11" lengthAdjust="spacingAndGlyphs" textLength="170" x="441.5" y="327.2573">controlarUnUsuario(unUsuario)</text><text fill="#000000" font-family="sans-serif" font-size="11" lengthAdjust="spacingAndGlyphs" textLength="105" x="441.5" y="340.062">controlarUsuarios()</text><!--MD5=[35a64b983c79880384a2fd9b61f0c24b]
class Usuario--><rect codeLine="24" fill="#FEFECE" filter="url(#f15wmzjlk8twdi)" height="291.2891" id="Usuario" style="stroke: #A80036; stroke-width: 1.5;" width="197" x="523" y="424"/><ellipse cx="594.25" cy="440" fill="#ADD1B2" rx="11" ry="11" style="stroke: #A80036; stroke-width: 1.0;"/><path d="M596.5938,435.6719 C595.6563,435.2344 595.0625,435.0938 594.1875,435.0938 C591.5625,435.0938 589.5625,437.1719 589.5625,439.8906 L589.5625,441.0156 C589.5625,443.5938 591.6719,445.4844 594.5625,445.4844 C595.7813,445.4844 596.9375,445.1875 597.6875,444.6406 C598.2656,444.2344 598.5938,443.7813 598.5938,443.3906 C598.5938,442.9375 598.2031,442.5469 597.7344,442.5469 C597.5156,442.5469 597.3125,442.625 597.125,442.8125 C596.6719,443.2969 596.6719,443.2969 596.4844,443.3906 C596.0625,443.6563 595.375,443.7813 594.6094,443.7813 C592.5625,443.7813 591.2656,442.6875 591.2656,440.9844 L591.2656,439.8906 C591.2656,438.1094 592.5156,436.7969 594.25,436.7969 C594.8281,436.7969 595.4375,436.9531 595.9063,437.2031 C596.3906,437.4844 596.5625,437.7031 596.6563,438.1094 C596.7188,438.5156 596.75,438.6406 596.8906,438.7656 C597.0313,438.9063 597.2656,439.0156 597.4844,439.0156 C597.75,439.0156 598.0156,438.875 598.1875,438.6563 C598.2969,438.5 598.3281,438.3125 598.3281,437.8906 L598.3281,436.4688 C598.3281,436.0313 598.3125,435.9063 598.2188,435.75 C598.0625,435.4844 597.7813,435.3438 597.4844,435.3438 C597.1875,435.3438 596.9844,435.4375 596.7656,435.75 L596.5938,435.6719 Z " fill="#000000"/><text fill="#000000" font-family="sans-serif" font-size="12" lengthAdjust="spacingAndGlyphs" textLength="46" x="614.75" y="444.1543">Usuario</text><line style="stroke: #A80036; stroke-width: 1.5;" x1="524" x2="719" y1="456" y2="456"/><text fill="#000000" font-family="sans-serif" font-size="11" lengthAdjust="spacingAndGlyphs" textLength="103" x="529" y="470.2104">nombreDeUsuario</text><text fill="#000000" font-family="sans-serif" font-size="11" lengthAdjust="spacingAndGlyphs" textLength="17" x="529" y="483.0151">dni</text><text fill="#000000" font-family="sans-serif" font-size="11" lengthAdjust="spacingAndGlyphs" textLength="96" x="529" y="495.8198">dineroDisponible</text><line style="stroke: #A80036; stroke-width: 1.5;" x1="524" x2="719" y1="502.4141" y2="502.4141"/><text fill="#000000" font-family="sans-serif" font-size="11" lengthAdjust="spacingAndGlyphs" textLength="124" x="529" y="516.6245">puedePagar(unMonto)</text><text fill="#000000" font-family="sans-serif" font-size="11" lengthAdjust="spacingAndGlyphs" textLength="88" x="529" y="529.4292">pagar(unMonto)</text><text fill="#000000" font-family="sans-serif" font-size="11" lengthAdjust="spacingAndGlyphs" textLength="129" x="529" y="542.2339">cargarDinero(unMonto)</text><text fill="#000000" font-family="sans-serif" font-size="11" lengthAdjust="spacingAndGlyphs" textLength="121" x="529" y="555.0386">quitarMulta(unaMulta)</text><text fill="#000000" font-family="sans-serif" font-size="11" lengthAdjust="spacingAndGlyphs" textLength="133" x="529" y="567.8433">agregarMulta(unaMulta)</text><text fill="#000000" font-family="sans-serif" font-size="11" lengthAdjust="spacingAndGlyphs" textLength="121" x="529" y="580.6479">pagarMulta(unaMulta)</text><text fill="#000000" font-family="sans-serif" font-size="11" lengthAdjust="spacingAndGlyphs" textLength="126" x="529" y="593.4526">recorrer(unaDistancia)</text><text fill="#000000" font-family="sans-serif" font-size="11" lengthAdjust="spacingAndGlyphs" textLength="171" x="529" y="606.2573">cargarCombustible(unosLitros)</text><text fill="#000000" font-family="sans-serif" font-size="11" lengthAdjust="spacingAndGlyphs" textLength="110" x="529" y="619.062">multasPendientes()</text><text fill="#000000" font-family="sans-serif" font-size="11" lengthAdjust="spacingAndGlyphs" textLength="44" x="529" y="631.8667">deuda()</text><text fill="#000000" font-family="sans-serif" font-size="11" lengthAdjust="spacingAndGlyphs" textLength="185" x="529" y="644.6714">velocidadPromedioDelVehiculo()</text><text fill="#000000" font-family="sans-serif" font-size="11" lengthAdjust="spacingAndGlyphs" textLength="109" x="529" y="657.4761">vehiculoEcologico()</text><text fill="#000000" font-family="sans-serif" font-size="11" lengthAdjust="spacingAndGlyphs" textLength="74" x="529" y="670.2808">tieneDniPar()</text><text fill="#000000" font-family="sans-serif" font-size="11" lengthAdjust="spacingAndGlyphs" textLength="89" x="529" y="683.0854">tieneDniImpar()</text><text fill="#000000" font-family="sans-serif" font-size="11" lengthAdjust="spacingAndGlyphs" textLength="76" x="529" y="695.8901">pagarMultas()</text><text fill="#000000" font-family="sans-serif" font-size="11" lengthAdjust="spacingAndGlyphs" textLength="88" x="529" y="708.6948">esComplicado()</text><!--MD5=[1d6438b19b75334de94d74596f8416e5]
class Vehiculo--><rect codeLine="49" fill="#FEFECE" filter="url(#f15wmzjlk8twdi)" height="265.6797" id="Vehiculo" style="stroke: #A80036; stroke-width: 1.5;" width="250" x="319.5" y="792"/><ellipse cx="414.75" cy="808" fill="#A9DCDF" rx="11" ry="11" style="stroke: #A80036; stroke-width: 1.0;"/><path d="M416.8281,809.8125 L417.2188,810.7969 L416.8281,810.7969 C416.375,810.7969 416.2656,810.8125 416.1094,810.9219 C415.8594,811.0781 415.7031,811.3594 415.7031,811.6563 C415.7031,811.9219 415.8438,812.1719 416.0625,812.3281 C416.2031,812.4531 416.4063,812.5 416.8281,812.5 L419.1875,812.5 C419.5469,812.5 419.7656,812.4688 419.9063,812.375 C420.1563,812.2344 420.3125,811.9375 420.3125,811.6563 C420.3125,811.375 420.1719,811.125 419.9531,810.9688 C419.7813,810.8281 419.625,810.7969 419.1563,810.7969 L415.7656,802.5938 L412.0938,802.5938 C411.6406,802.5938 411.5156,802.6094 411.3594,802.7031 C411.1094,802.875 410.9531,803.1563 410.9531,803.4375 C410.9531,803.7188 411.0938,803.9688 411.3125,804.1406 C411.4844,804.25 411.6563,804.2813 412.0938,804.2813 L413.1719,804.2813 L410.5313,810.7969 C410.1094,810.7969 409.9531,810.8125 409.7969,810.9219 C409.5469,811.0781 409.3906,811.3594 409.3906,811.6563 C409.3906,812.2188 409.7656,812.5 410.5156,812.5 L412.7813,812.5 C413.1406,812.5 413.3594,812.4688 413.4844,812.375 C413.75,812.2344 413.8906,811.9375 413.8906,811.6563 C413.8906,811.375 413.7656,811.125 413.5469,810.9531 C413.375,810.8281 413.2344,810.7969 412.7813,810.7969 L412.3906,810.7969 L412.7813,809.8125 L416.8281,809.8125 Z M416.125,808.1094 L413.4531,808.1094 L414.7969,804.8438 L416.125,808.1094 Z " fill="#000000"/><text fill="#000000" font-family="sans-serif" font-size="12" font-style="italic" lengthAdjust="spacingAndGlyphs" textLength="51" x="435.25" y="812.1543">Vehiculo</text><line style="stroke: #A80036; stroke-width: 1.5;" x1="320.5" x2="568.5" y1="824" y2="824"/><text fill="#000000" font-family="sans-serif" font-size="11" lengthAdjust="spacingAndGlyphs" textLength="117" x="325.5" y="838.2104">capacidadDeTanque</text><text fill="#000000" font-family="sans-serif" font-size="11" lengthAdjust="spacingAndGlyphs" textLength="116" x="325.5" y="851.0151">combustibleCargado</text><text fill="#000000" font-family="sans-serif" font-size="11" lengthAdjust="spacingAndGlyphs" textLength="108" x="325.5" y="863.8198">velocidadPromedio</text><line style="stroke: #A80036; stroke-width: 1.5;" x1="320.5" x2="568.5" y1="870.4141" y2="870.4141"/><text fill="#000000" font-family="sans-serif" font-size="11" lengthAdjust="spacingAndGlyphs" textLength="139" x="325.5" y="884.6245">puedeCargar(unosLitros)</text><text fill="#000000" font-family="sans-serif" font-size="11" lengthAdjust="spacingAndGlyphs" textLength="238" x="325.5" y="897.4292">aumentarCombustibleCargado(unosLitros)</text><text fill="#000000" font-family="sans-serif" font-size="11" lengthAdjust="spacingAndGlyphs" textLength="215" x="325.5" y="910.2339">quitarCombustibleCargado(unosLitros)</text><text fill="#000000" font-family="sans-serif" font-size="11" lengthAdjust="spacingAndGlyphs" textLength="187" x="325.5" y="923.0386">consumirCombustible(unosLitros)</text><text fill="#000000" font-family="sans-serif" font-size="11" lengthAdjust="spacingAndGlyphs" textLength="155" x="325.5" y="935.8433">litrosHastaLlenarElTanque()</text><text fill="#000000" font-family="sans-serif" font-size="11" lengthAdjust="spacingAndGlyphs" textLength="95" x="325.5" y="948.6479">costo(unosLitros)</text><text fill="#000000" font-family="sans-serif" font-size="11" lengthAdjust="spacingAndGlyphs" textLength="88" x="325.5" y="961.4526">consumoBase()</text><text fill="#000000" font-family="sans-serif" font-size="11" lengthAdjust="spacingAndGlyphs" textLength="132" x="325.5" y="974.2573">consumo(unaDistancia)</text><text fill="#000000" font-family="sans-serif" font-size="11" lengthAdjust="spacingAndGlyphs" textLength="126" x="325.5" y="987.062">recorrer(unaDistancia)</text><text fill="#000000" font-family="sans-serif" font-size="11" lengthAdjust="spacingAndGlyphs" textLength="234" x="325.5" y="999.8667">cargarCombustible(unosLitros, unUsuario)</text><text fill="#000000" font-family="sans-serif" font-size="11" lengthAdjust="spacingAndGlyphs" textLength="160" x="325.5" y="1012.6714">cantidadCargada(unosLitros)</text><text fill="#000000" font-family="sans-serif" font-size="11" lengthAdjust="spacingAndGlyphs" textLength="0" x="329.5" y="1025.4761"/><text fill="#000000" font-family="sans-serif" font-size="11" lengthAdjust="spacingAndGlyphs" textLength="99" x="325.5" y="1038.2808">abs esEcologico()</text><text fill="#000000" font-family="sans-serif" font-size="11" lengthAdjust="spacingAndGlyphs" textLength="207" x="325.5" y="1051.0854">abs consumoAdicional(unaDistancia)</text><!--MD5=[59dd0ee63d71d933f7a09ba1c3ac5916]
class Camioneta--><rect codeLine="72" fill="#FEFECE" filter="url(#f15wmzjlk8twdi)" height="99.2188" id="Camioneta" style="stroke: #A80036; stroke-width: 1.5;" width="305" x="7" y="1119"/><ellipse cx="123.75" cy="1135" fill="#ADD1B2" rx="11" ry="11" style="stroke: #A80036; stroke-width: 1.0;"/><path d="M126.0938,1130.6719 C125.1563,1130.2344 124.5625,1130.0938 123.6875,1130.0938 C121.0625,1130.0938 119.0625,1132.1719 119.0625,1134.8906 L119.0625,1136.0156 C119.0625,1138.5938 121.1719,1140.4844 124.0625,1140.4844 C125.2813,1140.4844 126.4375,1140.1875 127.1875,1139.6406 C127.7656,1139.2344 128.0938,1138.7813 128.0938,1138.3906 C128.0938,1137.9375 127.7031,1137.5469 127.2344,1137.5469 C127.0156,1137.5469 126.8125,1137.625 126.625,1137.8125 C126.1719,1138.2969 126.1719,1138.2969 125.9844,1138.3906 C125.5625,1138.6563 124.875,1138.7813 124.1094,1138.7813 C122.0625,1138.7813 120.7656,1137.6875 120.7656,1135.9844 L120.7656,1134.8906 C120.7656,1133.1094 122.0156,1131.7969 123.75,1131.7969 C124.3281,1131.7969 124.9375,1131.9531 125.4063,1132.2031 C125.8906,1132.4844 126.0625,1132.7031 126.1563,1133.1094 C126.2188,1133.5156 126.25,1133.6406 126.3906,1133.7656 C126.5313,1133.9063 126.7656,1134.0156 126.9844,1134.0156 C127.25,1134.0156 127.5156,1133.875 127.6875,1133.6563 C127.7969,1133.5 127.8281,1133.3125 127.8281,1132.8906 L127.8281,1131.4688 C127.8281,1131.0313 127.8125,1130.9063 127.7188,1130.75 C127.5625,1130.4844 127.2813,1130.3438 126.9844,1130.3438 C126.6875,1130.3438 126.4844,1130.4375 126.2656,1130.75 L126.0938,1130.6719 Z " fill="#000000"/><text fill="#000000" font-family="sans-serif" font-size="12" lengthAdjust="spacingAndGlyphs" textLength="63" x="144.25" y="1139.1543">Camioneta</text><line style="stroke: #A80036; stroke-width: 1.5;" x1="8" x2="311" y1="1151" y2="1151"/><line style="stroke: #A80036; stroke-width: 1.5;" x1="8" x2="311" y1="1159" y2="1159"/><text fill="#000000" font-family="sans-serif" font-size="11" lengthAdjust="spacingAndGlyphs" textLength="75" x="13" y="1173.2104">esEcologico()</text><text fill="#000000" font-family="sans-serif" font-size="11" lengthAdjust="spacingAndGlyphs" textLength="183" x="13" y="1186.0151">consumoAdicional(unaDistancia)</text><text fill="#000000" font-family="sans-serif" font-size="11" lengthAdjust="spacingAndGlyphs" textLength="0" x="17" y="1198.8198"/><text fill="#000000" font-family="sans-serif" font-size="11" lengthAdjust="spacingAndGlyphs" textLength="293" x="13" y="1211.6245">consumoBase() // override de método no abstracto</text><!--MD5=[c8977f79601e86601553c1c7245cefe5]
class Deportivo--><rect codeLine="79" fill="#FEFECE" filter="url(#f15wmzjlk8twdi)" height="73.6094" id="Deportivo" style="stroke: #A80036; stroke-width: 1.5;" width="195" x="347" y="1131.5"/><ellipse cx="410.25" cy="1147.5" fill="#ADD1B2" rx="11" ry="11" style="stroke: #A80036; stroke-width: 1.0;"/><path d="M412.5938,1143.1719 C411.6563,1142.7344 411.0625,1142.5938 410.1875,1142.5938 C407.5625,1142.5938 405.5625,1144.6719 405.5625,1147.3906 L405.5625,1148.5156 C405.5625,1151.0938 407.6719,1152.9844 410.5625,1152.9844 C411.7813,1152.9844 412.9375,1152.6875 413.6875,1152.1406 C414.2656,1151.7344 414.5938,1151.2813 414.5938,1150.8906 C414.5938,1150.4375 414.2031,1150.0469 413.7344,1150.0469 C413.5156,1150.0469 413.3125,1150.125 413.125,1150.3125 C412.6719,1150.7969 412.6719,1150.7969 412.4844,1150.8906 C412.0625,1151.1563 411.375,1151.2813 410.6094,1151.2813 C408.5625,1151.2813 407.2656,1150.1875 407.2656,1148.4844 L407.2656,1147.3906 C407.2656,1145.6094 408.5156,1144.2969 410.25,1144.2969 C410.8281,1144.2969 411.4375,1144.4531 411.9063,1144.7031 C412.3906,1144.9844 412.5625,1145.2031 412.6563,1145.6094 C412.7188,1146.0156 412.75,1146.1406 412.8906,1146.2656 C413.0313,1146.4063 413.2656,1146.5156 413.4844,1146.5156 C413.75,1146.5156 414.0156,1146.375 414.1875,1146.1563 C414.2969,1146 414.3281,1145.8125 414.3281,1145.3906 L414.3281,1143.9688 C414.3281,1143.5313 414.3125,1143.4063 414.2188,1143.25 C414.0625,1142.9844 413.7813,1142.8438 413.4844,1142.8438 C413.1875,1142.8438 412.9844,1142.9375 412.7656,1143.25 L412.5938,1143.1719 Z " fill="#000000"/><text fill="#000000" font-family="sans-serif" font-size="12" lengthAdjust="spacingAndGlyphs" textLength="60" x="430.75" y="1151.6543">Deportivo</text><line style="stroke: #A80036; stroke-width: 1.5;" x1="348" x2="541" y1="1163.5" y2="1163.5"/><line style="stroke: #A80036; stroke-width: 1.5;" x1="348" x2="541" y1="1171.5" y2="1171.5"/><text fill="#000000" font-family="sans-serif" font-size="11" lengthAdjust="spacingAndGlyphs" textLength="75" x="353" y="1185.7104">esEcologico()</text><text fill="#000000" font-family="sans-serif" font-size="11" lengthAdjust="spacingAndGlyphs" textLength="183" x="353" y="1198.5151">consumoAdicional(unaDistancia)</text><!--MD5=[5f2e15861f50b190a3d9edc5b28f131e]
class Familiar--><rect codeLine="85" fill="#FEFECE" filter="url(#f15wmzjlk8twdi)" height="73.6094" id="Familiar" style="stroke: #A80036; stroke-width: 1.5;" width="195" x="577" y="1131.5"/><ellipse cx="647.25" cy="1147.5" fill="#ADD1B2" rx="11" ry="11" style="stroke: #A80036; stroke-width: 1.0;"/><path d="M649.5938,1143.1719 C648.6563,1142.7344 648.0625,1142.5938 647.1875,1142.5938 C644.5625,1142.5938 642.5625,1144.6719 642.5625,1147.3906 L642.5625,1148.5156 C642.5625,1151.0938 644.6719,1152.9844 647.5625,1152.9844 C648.7813,1152.9844 649.9375,1152.6875 650.6875,1152.1406 C651.2656,1151.7344 651.5938,1151.2813 651.5938,1150.8906 C651.5938,1150.4375 651.2031,1150.0469 650.7344,1150.0469 C650.5156,1150.0469 650.3125,1150.125 650.125,1150.3125 C649.6719,1150.7969 649.6719,1150.7969 649.4844,1150.8906 C649.0625,1151.1563 648.375,1151.2813 647.6094,1151.2813 C645.5625,1151.2813 644.2656,1150.1875 644.2656,1148.4844 L644.2656,1147.3906 C644.2656,1145.6094 645.5156,1144.2969 647.25,1144.2969 C647.8281,1144.2969 648.4375,1144.4531 648.9063,1144.7031 C649.3906,1144.9844 649.5625,1145.2031 649.6563,1145.6094 C649.7188,1146.0156 649.75,1146.1406 649.8906,1146.2656 C650.0313,1146.4063 650.2656,1146.5156 650.4844,1146.5156 C650.75,1146.5156 651.0156,1146.375 651.1875,1146.1563 C651.2969,1146 651.3281,1145.8125 651.3281,1145.3906 L651.3281,1143.9688 C651.3281,1143.5313 651.3125,1143.4063 651.2188,1143.25 C651.0625,1142.9844 650.7813,1142.8438 650.4844,1142.8438 C650.1875,1142.8438 649.9844,1142.9375 649.7656,1143.25 L649.5938,1143.1719 Z " fill="#000000"/><text fill="#000000" font-family="sans-serif" font-size="12" lengthAdjust="spacingAndGlyphs" textLength="46" x="667.75" y="1151.6543">Familiar</text><line style="stroke: #A80036; stroke-width: 1.5;" x1="578" x2="771" y1="1163.5" y2="1163.5"/><line style="stroke: #A80036; stroke-width: 1.5;" x1="578" x2="771" y1="1171.5" y2="1171.5"/><text fill="#000000" font-family="sans-serif" font-size="11" lengthAdjust="spacingAndGlyphs" textLength="75" x="583" y="1185.7104">esEcologico()</text><text fill="#000000" font-family="sans-serif" font-size="11" lengthAdjust="spacingAndGlyphs" textLength="183" x="583" y="1198.5151">consumoAdicional(unaDistancia)</text><!--MD5=[47d21cf8a62f70ab3e59d629a0b65fa6]
class Multa--><rect codeLine="93" fill="#FEFECE" filter="url(#f15wmzjlk8twdi)" height="124.8281" id="Multa" style="stroke: #A80036; stroke-width: 1.5;" width="152" x="604.5" y="862.5"/><ellipse cx="660.75" cy="878.5" fill="#ADD1B2" rx="11" ry="11" style="stroke: #A80036; stroke-width: 1.0;"/><path d="M663.0938,874.1719 C662.1563,873.7344 661.5625,873.5938 660.6875,873.5938 C658.0625,873.5938 656.0625,875.6719 656.0625,878.3906 L656.0625,879.5156 C656.0625,882.0938 658.1719,883.9844 661.0625,883.9844 C662.2813,883.9844 663.4375,883.6875 664.1875,883.1406 C664.7656,882.7344 665.0938,882.2813 665.0938,881.8906 C665.0938,881.4375 664.7031,881.0469 664.2344,881.0469 C664.0156,881.0469 663.8125,881.125 663.625,881.3125 C663.1719,881.7969 663.1719,881.7969 662.9844,881.8906 C662.5625,882.1563 661.875,882.2813 661.1094,882.2813 C659.0625,882.2813 657.7656,881.1875 657.7656,879.4844 L657.7656,878.3906 C657.7656,876.6094 659.0156,875.2969 660.75,875.2969 C661.3281,875.2969 661.9375,875.4531 662.4063,875.7031 C662.8906,875.9844 663.0625,876.2031 663.1563,876.6094 C663.2188,877.0156 663.25,877.1406 663.3906,877.2656 C663.5313,877.4063 663.7656,877.5156 663.9844,877.5156 C664.25,877.5156 664.5156,877.375 664.6875,877.1563 C664.7969,877 664.8281,876.8125 664.8281,876.3906 L664.8281,874.9688 C664.8281,874.5313 664.8125,874.4063 664.7188,874.25 C664.5625,873.9844 664.2813,873.8438 663.9844,873.8438 C663.6875,873.8438 663.4844,873.9375 663.2656,874.25 L663.0938,874.1719 Z " fill="#000000"/><text fill="#000000" font-family="sans-serif" font-size="12" lengthAdjust="spacingAndGlyphs" textLength="31" x="681.25" y="882.6543">Multa</text><line style="stroke: #A80036; stroke-width: 1.5;" x1="605.5" x2="755.5" y1="894.5" y2="894.5"/><text fill="#000000" font-family="sans-serif" font-size="11" lengthAdjust="spacingAndGlyphs" textLength="30" x="610.5" y="908.7104">costo</text><text fill="#000000" font-family="sans-serif" font-size="11" lengthAdjust="spacingAndGlyphs" textLength="42" x="610.5" y="921.5151">pagada</text><line style="stroke: #A80036; stroke-width: 1.5;" x1="605.5" x2="755.5" y1="928.1094" y2="928.1094"/><text fill="#000000" font-family="sans-serif" font-size="11" lengthAdjust="spacingAndGlyphs" textLength="38" x="610.5" y="942.3198">costo()</text><text fill="#000000" font-family="sans-serif" font-size="11" lengthAdjust="spacingAndGlyphs" textLength="95" x="610.5" y="955.1245">actualizarCosto()</text><text fill="#000000" font-family="sans-serif" font-size="11" lengthAdjust="spacingAndGlyphs" textLength="82" x="610.5" y="967.9292">registrarPago()</text><text fill="#000000" font-family="sans-serif" font-size="11" lengthAdjust="spacingAndGlyphs" textLength="140" x="610.5" y="980.7339">serPagadaPor(unUsuario)</text><!--MD5=[090f64bdd455590a8b74eaf04b95181d]
link app to Usuario--><path codeLine="106" d="M664.483,68 C666.458,77.52 668.375,88.16 669.5,98 C684.449,228.752 697.852,263.98 677.5,394 C676.237,402.07 674.664,410.276 672.856,418.51 " fill="none" id="app-to-Usuario" style="stroke: #A80036; stroke-width: 1.0;"/><polygon fill="#A80036" points="671.701,423.639,677.5804,415.7376,672.7994,418.7611,669.7759,413.9801,671.701,423.639" style="stroke: #A80036; stroke-width: 1.0;"/><text fill="#000000" font-family="sans-serif" font-size="13" lengthAdjust="spacingAndGlyphs" textLength="54" x="688.5" y="250.5669">usuarios</text><text fill="#000000" font-family="sans-serif" font-size="13" lengthAdjust="spacingAndGlyphs" textLength="7" x="667.109" y="412.7942">*</text><!--MD5=[59df4cfa8595733c7a0ee83a7e21cac4]
link app to Zona--><path codeLine="107" d="M639.591,68.09 C627.976,87.27 612.075,113.54 596.08,139.97 " fill="none" id="app-to-Zona" style="stroke: #A80036; stroke-width: 1.0;"/><polygon fill="#A80036" points="593.304,144.55,601.3833,138.9174,595.8908,140.2711,594.5371,134.7786,593.304,144.55" style="stroke: #A80036; stroke-width: 1.0;"/><text fill="#000000" font-family="sans-serif" font-size="13" lengthAdjust="spacingAndGlyphs" textLength="38" x="622.5" y="111.0669">zonas</text><text fill="#000000" font-family="sans-serif" font-size="13" lengthAdjust="spacingAndGlyphs" textLength="7" x="590.3332" y="133.9731">*</text><!--MD5=[676f6db83a12f7fa76f065b0b95ca600]
link Zona to Usuario--><path codeLine="108" d="M541.177,347.303 C543.572,363.061 546.622,379.069 550.5,394 C552.611,402.127 555.012,410.378 557.625,418.648 " fill="none" id="Zona-to-Usuario" style="stroke: #A80036; stroke-width: 1.0;"/><polygon fill="#A80036" points="559.278,423.799,560.3347,414.007,557.7492,419.0384,552.7178,416.453,559.278,423.799" style="stroke: #A80036; stroke-width: 1.0;"/><text fill="#000000" font-family="sans-serif" font-size="13" lengthAdjust="spacingAndGlyphs" textLength="121" x="551.5" y="390.0669">usuariosCirculando</text><text fill="#000000" font-family="sans-serif" font-size="13" lengthAdjust="spacingAndGlyphs" textLength="7" x="548.8892" y="412.9624">*</text><!--MD5=[ba530f62ab8ca56faf7f1f9abf208430]
link Usuario to Multa--><path codeLine="110" d="M645.625,715.047 C653.823,764.165 662.594,816.716 669.289,856.83 " fill="none" id="Usuario-to-Multa" style="stroke: #A80036; stroke-width: 1.0;"/><polygon fill="#A80036" points="670.178,862.157,672.6422,852.6214,669.3551,857.2252,664.7513,853.9381,670.178,862.157" style="stroke: #A80036; stroke-width: 1.0;"/><text fill="#000000" font-family="sans-serif" font-size="13" lengthAdjust="spacingAndGlyphs" textLength="44" x="653.5" y="758.0669">multas</text><text fill="#000000" font-family="sans-serif" font-size="13" lengthAdjust="spacingAndGlyphs" textLength="7" x="661.6662" y="851.5468">*</text><!--MD5=[9fa8fdc51a6e5e975afaf48082efb2a0]
link Usuario to Vehiculo--><path codeLine="111" d="M549.124,715.047 C537.213,738.836 524.898,763.431 513.083,787.028 " fill="none" id="Usuario-to-Vehiculo" style="stroke: #A80036; stroke-width: 1.0;"/><polygon fill="#A80036" points="510.727,791.734,518.3328,785.4769,512.9654,787.263,511.1792,781.8955,510.727,791.734" style="stroke: #A80036; stroke-width: 1.0;"/><text fill="#000000" font-family="sans-serif" font-size="13" lengthAdjust="spacingAndGlyphs" textLength="53" x="534.5" y="758.0669">vehiculo</text><!--MD5=[846ffb3fb8d02d9b55544963338f055d]
reverse link Vehiculo to Deportivo--><path codeLine="113" d="M444.5,1078.288 C444.5,1097.791 444.5,1116.113 444.5,1131.0181 " fill="none" id="Vehiculo-backto-Deportivo" style="stroke: #A80036; stroke-width: 1.0;"/><polygon fill="none" points="437.5,1078.056,444.5,1058.056,451.5,1078.056,437.5,1078.056" style="stroke: #A80036; stroke-width: 1.0;"/><!--MD5=[7b4736f7f429743c63cf26f10d23886b]
reverse link Vehiculo to Camioneta--><path codeLine="114" d="M303.93,1045.114 C273.146,1071.2 242.243,1097.387 216.966,1118.8048 " fill="none" id="Vehiculo-backto-Camioneta" style="stroke: #A80036; stroke-width: 1.0;"/><polygon fill="none" points="299.711,1039.515,319.495,1031.925,308.762,1050.196,299.711,1039.515" style="stroke: #A80036; stroke-width: 1.0;"/><!--MD5=[e11eb455a94cab0d33130ac82ebd71b9]
reverse link Vehiculo to Familiar--><path codeLine="115" d="M583.47,1071.919 C604.388,1093.882 624.198,1114.683 639.964,1131.2368 " fill="none" id="Vehiculo-backto-Familiar" style="stroke: #A80036; stroke-width: 1.0;"/><polygon fill="none" points="578.32,1076.661,569.596,1057.351,588.458,1067.006,578.32,1076.661" style="stroke: #A80036; stroke-width: 1.0;"/><!--MD5=[84ee9fda7df7ee33a6903d35b53773d8]
@startuml
object app {
pagarMultas()
zonaMasTransitada()
usuariosComplicados()
}

class Zona {
velocidadPermitida

cantidadDeUsuariosCirculando()
esDiaPar()
excesoDeVelocidad(unUsuario)
infraccionEcologica(unUsuario)
infraccionRegulatoria(unUsuario)
generarMulta(unCosto)
controlDeVelocidad(unUsuario)
controlEcologico(unUsuario)
controlRegulatorio(unUsuario)
controlarUnUsuario(unUsuario)
controlarUsuarios()
}


class Usuario {
nombreDeUsuario
dni
dineroDisponible

puedePagar(unMonto)
pagar(unMonto)
cargarDinero(unMonto)
quitarMulta(unaMulta)
agregarMulta(unaMulta)
pagarMulta(unaMulta)
recorrer(unaDistancia)
cargarCombustible(unosLitros)
multasPendientes()
deuda()
velocidadPromedioDelVehiculo()
vehiculoEcologico()
tieneDniPar()
tieneDniImpar()
pagarMultas()
esComplicado()
}



abstract Vehiculo {
capacidadDeTanque
combustibleCargado
velocidadPromedio

puedeCargar(unosLitros)
aumentarCombustibleCargado(unosLitros)
quitarCombustibleCargado(unosLitros)
consumirCombustible(unosLitros)
litrosHastaLlenarElTanque()
costo(unosLitros)
consumoBase()
consumo(unaDistancia)
recorrer(unaDistancia)
cargarCombustible(unosLitros, unUsuario)
cantidadCargada(unosLitros)

abs esEcologico()
abs consumoAdicional(unaDistancia)

}


class Camioneta {
esEcologico()
consumoAdicional(unaDistancia)

consumoBase() // override de método no abstracto
}

class Deportivo {
esEcologico()
consumoAdicional(unaDistancia)

}

class Familiar {
esEcologico()
consumoAdicional(unaDistancia)

}



class Multa {
costo
pagada

costo()
actualizarCosto()
registrarPago()
serPagadaPor(unUsuario)

}



app - ->"*" Usuario : usuarios
app - ->"*" Zona : zonas
Zona - ->"*" Usuario : usuariosCirculando

Usuario - ->"*" Multa : multas
Usuario - -> Vehiculo : vehiculo

Vehiculo <|- - Deportivo
Vehiculo <|- - Camioneta
Vehiculo <|- - Familiar
@enduml

PlantUML version 1.2020.20beta13(Unknown compile time)
(GPL source distribution)
Java Runtime: Java(TM) SE Runtime Environment
JVM: Java HotSpot(TM) 64-Bit Server VM
Default Encoding: UTF-8
Language: en
Country: US
--></g></svg>